<svg xmlns="http://www.w3.org/2000/svg" viewBox="0 0 190 190" width="190" height="190">
	<defs>
		<radialGradient id="grd1" gradientUnits="userSpaceOnUse"  cx="117.93" cy="87.601" r="109.687">
			<stop offset="0" stop-color="#5f6a7b"  />
			<stop offset="1" stop-color="#454e5c"  />
		</radialGradient>
		<radialGradient id="grd2" gradientUnits="userSpaceOnUse"  cx="133.655" cy="21.503" r="127.318">
			<stop offset="0" stop-color="#ca8f22"  />
			<stop offset="0.99" stop-color="#805913"  />
		</radialGradient>
		<radialGradient id="grd3" gradientUnits="userSpaceOnUse"  cx="72.479" cy="51.109" r="108.98">
			<stop offset="0" stop-color="#2bacbd"  />
			<stop offset="1" stop-color="#228b99"  />
		</radialGradient>
	</defs>
	<style>
		tspan { white-space:pre }
		.shp0 { fill: url(#grd1) } 
		.shp1 { fill: url(#grd2) } 
		.shp2 { fill: url(#grd3) } 
	</style>
	<g id="favicon">
		<path id="Path 1" class="shp0" d="M155.24 97.76L98.32 153.71L78.79 78.23C77.68 73.93 73.33 71.31 69.01 72.34C64.57 73.4 61.86 77.9 63 82.32L89.61 185.15L111.53 163.6C109.78 173.27 115.65 182.85 125.31 185.53C135.54 188.36 146.13 182.37 148.96 172.14C151.79 161.91 145.8 151.32 135.57 148.49C132.8 147.72 130.01 147.62 127.35 148.06L166.67 109.4C169.78 106.34 169.94 101.38 167.03 98.13C163.92 94.67 158.56 94.5 155.24 97.76Z" />
		<path id="Path 2" class="shp1" d="M163.25 30.76C166.49 19.08 159.64 6.99 147.97 3.75C136.28 0.51 124.18 7.36 120.95 19.04C119.02 26.01 120.69 33.11 124.82 38.41L84.03 27.1C79.69 25.9 75.2 28.44 73.99 32.78C72.79 37.12 75.34 41.61 79.67 42.82L157.42 64.37L99.28 121.52C96.17 124.57 96.02 129.54 98.93 132.78C102.03 136.24 107.4 136.41 110.72 133.15L189 56.2L149.96 45.37C156.23 42.96 161.32 37.74 163.25 30.76Z" />
		<path id="Path 1 copy 2" class="shp2" d="M71.35 138.52L49.83 59.35L127.32 79.82C131.73 80.98 136.27 78.4 137.52 74.01C138.81 69.5 136.14 64.81 131.6 63.61L26.04 35.73L34.32 66.22C26.54 59.78 14.99 60.23 7.74 67.53C0.05 75.28 0.09 87.78 7.84 95.47C15.58 103.16 28.09 103.11 35.77 95.37C37.86 93.27 39.35 90.82 40.3 88.21L55.17 142.92C56.34 147.24 60.71 149.88 65.09 148.9C69.75 147.86 72.6 143.13 71.35 138.52Z" />
	</g>
</svg>